<?xml version="1.0" encoding="utf-8"?>
<!DOCTYPE svg PUBLIC "-//W3C//DTD SVG 1.1//EN" "http://www.w3.org/Graphics/SVG/1.1/DTD/svg11.dtd">
<svg version="1.1" id="Layer_1" xmlns="http://www.w3.org/2000/svg" xmlns:xlink="http://www.w3.org/1999/xlink" x="0px" y="0px"
	 width="192.8px" height="192.8px" viewBox="0 0 192.8 192.8" enable-background="new 0 0 192.8 192.8" xml:space="preserve">
<g>
	<polygon fill-rule="evenodd" clip-rule="evenodd" fill="#FFFFFF" points="0,0 192.8,0 192.8,192.8 0,192.8 0,0 	"/>
	<path fill-rule="evenodd" clip-rule="evenodd" fill="#005BAA" d="M43.2,110.2c-0.6,0-1.2,0-1.8,0c0.1-1,0.1-2.1,0.1-3.3
		c0-1.2,0-2.3-0.1-3.3c0.2,0,0.4,0,0.6,0c0.2,0,0.4,0,0.5,0c0,0.9-0.1,1.8-0.1,2.6c0,1.7,0,2.8,0,3.5h0.7h0.2c0.6,0,1.1-0.1,1.6-0.2
		c0,0.1,0,0.3,0,0.4c0,0.1,0,0.2,0,0.3C44.5,110.2,43.9,110.2,43.2,110.2C43.2,110.2,43.2,110.2,43.2,110.2L43.2,110.2z M184.3,84.6
		c0-10.8-8.1-21.1-21.6-29.1c-3.3-2-6.9-3.8-10.8-5.4c-2.6-1.1-5.3-2.2-8.1-3.1c-2.3-0.7-4.6-1.4-7-2.1c-2-0.5-4-1.1-6-1.5
		c-2.6-0.6-5.3-1.1-8.1-1.6c-3-0.5-6-0.9-9.1-1.2c-3.2-0.3-6.6-0.5-10-0.7c-1.1,0-2.2,0-3.3-0.1c-0.9,0-1.8,0-2.7,0
		c-1.4,0-2.9,0-4.3,0.1c-2.7,0.1-5.5,0.2-8.1,0.4c-2.9,0.2-5.8,0.5-8.6,0.9c-2.3,0.3-4.7,0.7-7,1.1c-2.5,0.5-4.9,1-7.3,1.6
		c-4.4,1.1-8.7,2.3-12.7,3.7c-2.3,0.8-4.4,1.7-6.5,2.6c-19.4,8.3-31.8,20.8-31.8,34c0,4.6,1.4,9.1,3.9,13.2l1.4-1.1
		c-2-3.6-3.2-7.3-3.1-11.1c0.2-13.3,11.6-24.5,29.6-31.9c2.1-0.8,4.3-1.6,6.5-2.4c4-1.3,8.2-2.5,12.7-3.4c2.4-0.5,4.9-1,7.3-1.4
		c2.3-0.4,4.6-0.7,7-1c2.8-0.3,5.7-0.6,8.6-0.8c2.7-0.2,5.4-0.3,8.1-0.4c1.6,0,3.1-0.1,4.7-0.1c0.8,0,1.6,0,2.4,0
		c1.1,0,2.2,0,3.3,0.1c3.4,0.1,6.7,0.3,10,0.5c3.1,0.3,6.1,0.6,9.1,1.1c2.7,0.4,5.4,0.8,8.1,1.3c2,0.4,4,0.9,6,1.3
		c2.4,0.6,4.7,1.2,7,1.9c2.8,0.9,5.6,1.8,8.1,2.9c3.9,1.5,7.5,3.2,10.8,5.1c12.2,7,19.7,16.4,19.8,27.1c0.1,4.6-1.4,9-4.2,13.1
		c-0.2,0.1-0.2,0.2-0.3,0.3c-1.6,2.2-3.3,4.1-5.2,6c-2.8,2.6-6.2,5-10.1,7.2c-3.3,1.9-6.9,3.6-10.8,5.2c-2.6,1.1-5.3,2-8.1,2.9
		c-2.3,0.7-4.6,1.4-7,2c-2,0.5-4,0.9-6,1.4c-2.6,0.5-5.3,1-8.1,1.4c-2.7,0.4-5.5,0.7-8.3,1c-0.3,0-0.5,0-0.8,0
		c-3.3,0.2-6.7,0.4-10,0.4c-1.1,0-2.2,0-3.3,0c-0.2,0-0.3,0-0.5,0c-2.3,0-4.5,0-6.6-0.1c-2.9,0-5.6-0.1-8.1-0.2
		c-3-0.1-5.9-0.2-8.6-0.3c-2.3-0.1-4.7-0.1-7-0.1c-2.4,0-4.9,0.1-7.3,0.2c-4,0.2-8.2,0.6-12.7,1.4c-1.9,0.3-3.8,0.6-5.8,1.1
		c-0.3,0-0.5,0.1-0.7,0.2c-22.3,4.9-34.7,18.6-34.7,18.6s0.3,0.4,0.4,0.3c10.4-7.6,20-12.4,34.2-14.1c2.1-0.2,4.3-0.4,6.5-0.5
		c2-0.1,4.1-0.2,6.3-0.2s4.3,0.1,6.4,0.2c2.5,0.2,4.9,0.4,7.3,0.5c2.3,0.2,4.7,0.5,7,0.7c2.9,0.3,5.7,0.7,8.6,0.9
		c2.7,0.2,5.4,0.4,8.1,0.5c2.3,0.1,4.7,0.2,7,0.1c1.1,0,2.2-0.1,3.3-0.1c3.2-0.2,6.5-0.5,10-1.1c0.4-0.1,0.7-0.1,1.1-0.2
		c2.8-0.5,5.5-1.1,8.1-1.6c2.8-0.7,5.5-1.3,8.1-2.1c2.1-0.6,4.1-1.2,6-1.8c2.4-0.8,4.7-1.6,7-2.5c2.9-1.1,5.6-2.3,8.1-3.6
		c4-1.9,7.5-4,10.8-6.1c8.4-5.6,14.1-11.5,17.4-16.9C183,94.5,184.3,91.6,184.3,84.6L184.3,84.6z M162.7,94.9L162.7,94.9
		c6,0,9.2-4.6,9.2-9.4c0-5.3-3.6-9.4-9.1-9.4c0,0,0,0-0.1,0c-5.8,0-9.2,4.3-9.2,9.4C153.5,90.4,156.8,94.9,162.7,94.9L162.7,94.9z
		 M162.7,73.1c0,0,0.1,0,0.1,0c7.7,0,13.1,5.8,13.1,12.4c0,6.1-5.2,12.2-13.3,12.2c-4.5,0-8.4-2-10.8-5c-1.6-2-2.5-4.5-2.5-7.2
		c0-2.7,0.9-5.2,2.5-7.3C154.3,75.3,158,73.2,162.7,73.1L162.7,73.1z M151.9,135c3.1-1.9,6.3-4.2,9.7-6.9l0.7,0.2
		c0,0-3.7,4.7-10.4,9.9c-2.3,1.8-5.1,3.8-8.1,5.6c-2.2,1.3-4.5,2.5-7,3.6c-1.9,0.9-3.9,1.6-6,2.3c-2.5,0.9-5.2,1.6-8.1,2.1
		c-2.2,0.4-4.5,0.7-6.8,0.9c-0.8,0-1.6,0.1-2.3,0.2c-3.8,0.2-7,0.2-10,0.2c-1.1,0-2.2-0.1-3.3-0.1c-2.5-0.2-4.8-0.4-7-0.7
		c-2.8-0.4-5.4-0.9-8.1-1.4c-2.7-0.5-5.4-1-8.6-1.5c-2.2-0.3-4.5-0.5-7-0.7c-2.4-0.1-4.9-0.1-7.3,0c-4.6,0.1-9.1,0.6-12.7,1.4
		c-1.7,0.4-3.2,0.8-4.5,1.3c0,0-0.1-0.6-0.1-0.6c1.4-0.7,2.9-1.4,4.6-2.2c3.7-1.6,8.1-3.1,12.7-4.1c2.4-0.5,4.9-1,7.3-1.2
		c0.1,0,0.2,0,0.4,0c2.1-0.2,4.3-0.2,6.6-0.1c2.7,0.1,5.6,0.4,8.6,0.7c2.6,0.3,5.3,0.6,8.1,0.9c2.3,0.2,4.7,0.4,7,0.6
		c1.1,0.1,2.2,0.1,3.3,0.2c3.2,0.2,6.6,0.2,10,0c1.2-0.1,2.5-0.2,3.7-0.3c1.9-0.2,3.7-0.4,5.4-0.6c2.9-0.4,5.6-0.7,8.1-1.3
		c2.1-0.4,4.1-0.9,6-1.5c2.4-0.7,4.7-1.5,7-2.5C146.5,138.1,149.2,136.7,151.9,135L151.9,135z M151.9,109.7h0.2
		c0.5,0,1.1-0.1,1.6-0.2c0,0.1,0,0.3,0,0.4c0,0.1,0,0.2,0,0.3c-0.6,0-1.1,0-1.7,0c0,0-0.1,0-0.1,0c-0.6,0-1.2,0-1.8,0
		c0.1-1,0.1-2.1,0.1-3.3c0-1.2,0-2.3-0.1-3.3c0.6,0,1.2,0,1.8,0c0,0,0,0,0,0c0.6,0,1.2,0,1.7,0c0,0.1,0,0.2,0,0.3c0,0.1,0,0.2,0,0.4
		c-0.5-0.1-1-0.2-1.6-0.2h-0.2h-0.7c0,0.7,0,1.2,0,1.4v1h0.7h0.2c0.4,0,0.9,0,1.4-0.1c0,0.1,0,0.2,0,0.3c0,0.1,0,0.2,0,0.3
		c-0.7,0-1.1,0-1.4,0h-0.2h-0.7v1c0,0.4,0,0.9,0,1.8H151.9L151.9,109.7z M143.8,106.2c0.7,0.8,1.5,1.6,2.2,2.4v-2.7
		c0-0.7,0-1.4-0.1-2.3c0.1,0,0.3,0,0.4,0s0.3,0,0.4,0c-0.1,0.7-0.2,2.4-0.2,5.3c0,0.3,0,0.8,0,1.5h-0.3c-0.5-0.7-1.2-1.4-1.8-2.1
		l-0.6-0.7l-2.2-2.4v2.7c0,0.9,0,1.6,0.1,2.3c-0.2,0-0.3,0-0.4,0c-0.2,0-0.3,0-0.4,0c0.1-0.9,0.2-2.7,0.2-5.3c0-0.4,0-0.9,0-1.4h0.4
		C142.2,104.4,143,105.3,143.8,106.2L143.8,106.2z M143.8,87h2.6c-0.7,0.4-0.9,0.4-0.9,1.9v6.6c-0.5,0.3-1.1,0.5-1.7,0.8
		c-2.1,0.9-4.6,1.4-7,1.4c0,0-0.1,0-0.2,0c-2.2,0-4.1-0.4-5.8-1.1c-4.4-1.8-7.2-5.8-7.2-11c0-5.2,2.9-9.3,7.2-11.3
		c1.8-0.8,3.7-1.3,5.8-1.3c0,0,0.1,0,0.2,0c4.2,0.1,5.8,1.8,6.9,1.8h0c0.3,0,0.5-0.2,0.8-0.4v4.5c-0.1-0.1-0.4-0.4-0.8-0.7
		c-1.1-0.9-3.4-2.4-6.6-2.4c-0.1,0-0.2,0-0.4,0c-2.3,0-4.4,0.9-6,2.2c-1.9,1.7-3.1,4.3-3.1,7.4c0,3.1,1.1,5.6,3.1,7.3
		c1.5,1.2,3.5,2,6,2c0,0,0.1,0,0.1,0c1.6,0,2.7-0.4,4.4-0.8v-5.2c0-1.5-0.4-1.5-0.9-1.9H143.8L143.8,87z M136.8,103.6
		C136.8,103.6,136.8,103.6,136.8,103.6c0.2,0,0.4,0,0.6,0c-0.1,1-0.1,2.1-0.1,3.3c0,1.3,0,2.3,0.1,3.3c-0.2,0-0.4,0-0.5,0
		c0,0,0,0,0,0c-0.2,0-0.4,0-0.6,0c0.1-1,0.1-2.1,0.1-3.3c0-1.2,0-2.3-0.1-3.3C136.5,103.6,136.6,103.6,136.8,103.6L136.8,103.6z
		 M130.9,106.5c0.7-0.2,1.1-0.7,1.1-1.3s-0.4-1.1-1.1-1.3c-0.2,0-0.3,0-0.5,0c-0.2,0-0.4,0-0.6,0c0,0.5,0,0.9,0,1.2v1.4
		c0.1,0,0.2,0,0.3,0C130.3,106.6,130.6,106.6,130.9,106.5L130.9,106.5z M130.9,103.6L130.9,103.6c1.4,0,2.2,0.5,2.2,1.5
		c0,0.9-0.7,1.5-1.9,1.7c0.8,1.1,1.6,2.2,2.6,3.4c-0.2,0-0.5,0-0.7,0c-0.2,0-0.5,0-0.7,0c-0.4-0.7-0.9-1.4-1.4-2.1
		c-0.3-0.4-0.6-0.7-0.9-1.1h-0.2v1.1c0,0.7,0,1.4,0.1,2.2c-0.2,0-0.4,0-0.5,0s-0.4,0-0.5,0c0.1-1.3,0.1-2.6,0.1-4c0-1,0-1.9-0.1-2.7
		c0.2,0,0.5,0,0.7,0C130,103.6,130.4,103.6,130.9,103.6L130.9,103.6z M122.8,107.2L122.8,107.2c0.4,0,0.7,0,0.9,0l-0.9-2.4l-0.9,2.4
		C122.2,107.2,122.5,107.2,122.8,107.2L122.8,107.2z M122.8,103.6c0,0,0-0.1,0.1-0.2c0.1,0,0.2,0,0.2,0c0,0,0.1,0,0.2,0
		c0.9,2.2,1.8,4.5,2.8,6.8c-0.2,0-0.5,0-0.7,0s-0.4,0-0.6,0c-0.3-0.9-0.5-1.7-0.9-2.5c-0.4,0-0.7,0-1.1,0c0,0,0,0-0.1,0
		c-0.4,0-0.7,0-1.2,0l-0.4,1c-0.2,0.5-0.3,1-0.4,1.5c-0.1,0-0.3,0-0.4,0c-0.2,0-0.3,0-0.4,0C121,108,121.9,105.8,122.8,103.6
		L122.8,103.6z M122.8,94c0.2-0.2,0.3-0.4,0.4-0.5v3.7h-0.4h-9.1h-7.6c0.6-0.5,0.9-1.1,0.9-2.4V75.6c0-1.3-0.3-1.5-1-2h6.1
		c-0.7,0.5-1,0.7-1,2v18.9h2.6h7C121.9,94.5,122.5,94.3,122.8,94L122.8,94z M113.7,108.5c0,0.1,0.1,0.1,0.1,0.2
		c0.9-1.6,1.8-3.4,2.7-5.2h0.4c0.2,2.3,0.4,4.6,0.8,6.8c-0.2,0-0.4-0.1-0.6-0.1c-0.2,0-0.4,0-0.5,0.1c-0.1-1.6-0.2-3.3-0.5-5
		l-1.4,2.7c-0.4,0.8-0.7,1.5-1,2.2c0,0,0,0,0,0.1c0,0-0.1,0-0.1,0s-0.1,0-0.1,0c-0.8-1.6-1.6-3.3-2.5-4.9l-0.3,2.7
		c-0.1,0.7-0.1,1.4-0.2,2.2c-0.1,0-0.3,0-0.4,0s-0.3,0-0.4,0c0.5-2.4,0.8-4.7,0.9-6.8h0.4C112,105.3,112.9,107,113.7,108.5
		L113.7,108.5z M103.7,97.2c0,0,0.1,0,0.1,0.1L103.7,97.2l-3.3,0.1h-3.3c0.3-0.3,0.6-0.4,0.8-0.9c0.2-0.4-0.1-0.9-0.2-1.3l-2.4-5.4
		h-1.9h-8.1h-0.1L82.9,95c-0.2,0.5-0.2,0.8-0.2,1.1c0,1.1,0.6,0.9,0.8,1.2H78c0.4-0.3,0.9-0.4,1.6-1.9l5.6-12.9l3.1-7
		c0.1-0.2,0.2-0.5,0.2-0.8c0-0.4-0.3-0.7-0.5-1h4.7l0.6,1.5l7,16.1l1.9,4.3C102.9,96.7,103,96.8,103.7,97.2L103.7,97.2z
		 M100.4,109.7h0.2c0.6,0,1.1-0.1,1.6-0.2c0,0.1,0,0.3,0,0.4c0,0.1,0,0.2,0,0.3c-0.5,0-1.1,0-1.7,0c0,0,0,0-0.1,0
		c-0.5,0-1.2,0-1.7,0c0.1-1,0.1-2.1,0.1-3.3c0-1.2,0-2.3-0.1-3.3c0.5,0,1.2,0,1.7,0c0,0,0,0,0,0c0.7,0,1.2,0,1.8,0
		c0,0.1,0,0.2,0,0.3c0,0.1,0,0.2,0,0.4c-0.5-0.1-1-0.2-1.6-0.2h-0.2h-0.7c0,0.7,0,1.2,0,1.4v1h0.7h0.3c0.4,0,0.8,0,1.3-0.1
		c0,0.1,0,0.2,0,0.3c0,0.1,0,0.2,0,0.3c-0.6,0-1.1,0-1.4,0h-0.3h-0.7v1c0,0.4,0,0.9,0,1.8H100.4L100.4,109.7z M93.4,87.1h0.8
		l-0.8-1.9l-3-6.9l-4,8.8H93.4L93.4,87.1z M93.4,103.7c0.7,0,1.5,0,2.5-0.1c0,0.1,0,0.2,0,0.4s0,0.2,0,0.4c-0.7-0.1-1.2-0.2-1.4-0.2
		h-0.6c0,0.4,0,0.8,0,1.1c0,2.5,0,4.2,0.1,5c-0.2,0-0.4,0-0.5,0c-0.2,0-0.4,0-0.5,0c0.1-1,0.1-2.3,0.1-4.3c0-0.5,0-1.2,0-1.8h-0.5
		c-0.3,0-0.8,0-1.4,0.1c0-0.1,0-0.2,0-0.4c0-0.1,0-0.2,0-0.3C92,103.6,92.8,103.7,93.4,103.7L93.4,103.7z M85.2,109.8L85.2,109.8
		c0.7,0,1.3-0.2,1.6-0.6c0.5-0.5,0.5-1.1,0.5-2.1c0-0.1,0-0.2,0-0.2v-1.4c0-0.7,0-1.4-0.1-2c0.2,0,0.3,0,0.4,0s0.3,0,0.5,0
		c-0.1,0.6-0.1,1.3-0.1,2.4v1.6c0,1.8-1,2.7-2.8,2.7c0,0-0.1,0-0.1,0c-1.1,0-1.9-0.3-2.3-1c-0.3-0.5-0.4-1.1-0.4-1.9
		c0-0.1,0-0.2,0-0.3v-2c0-0.5,0-1.1-0.1-1.6c0.2,0,0.4,0,0.6,0s0.4,0,0.6,0c-0.1,0.7-0.1,1.3-0.1,1.6v1.8c0,0.9,0,1.5,0.2,1.8
		C83.8,109.5,84.3,109.8,85.2,109.8L85.2,109.8z M76.6,107.2L76.6,107.2c0.4,0,0.7,0,1,0l-1-2.4l-0.9,2.4
		C76,107.2,76.3,107.2,76.6,107.2L76.6,107.2z M76.6,103.6c0,0,0-0.1,0.1-0.2c0.1,0,0.2,0,0.2,0s0.1,0,0.2,0
		c0.9,2.2,1.8,4.5,2.8,6.8c-0.2,0-0.5,0-0.7,0c-0.2,0-0.4,0-0.6,0c-0.3-0.9-0.5-1.7-0.9-2.5c-0.3,0-0.7,0-1.1,0c0,0,0,0-0.1,0
		c-0.4,0-0.7,0-1.1,0l-0.4,1c-0.2,0.5-0.3,1-0.4,1.5c-0.1,0-0.3,0-0.4,0c-0.2,0-0.3,0-0.4,0C74.8,108,75.7,105.8,76.6,103.6
		L76.6,103.6z M69.7,109.7h0.2c0.5,0,1.1-0.1,1.6-0.2c0,0.1,0,0.3,0,0.4c0,0.1,0,0.2,0,0.3c-0.6,0-1.2,0-1.8,0c0,0,0,0-0.1,0
		c-0.5,0-1.1,0-1.8,0c0.1-1,0.1-2.1,0.1-3.3c0-1.2,0-2.3-0.1-3.3c0.6,0,1.2,0,1.8,0c0,0,0,0,0.1,0c0.6,0,1.1,0,1.7,0
		c0,0.1,0,0.2,0,0.3c0,0.1,0,0.2,0,0.4c-0.5-0.1-1.1-0.2-1.6-0.2h-0.2h-0.7c0,0.7,0,1.2,0,1.4v1h0.7H70c0.4,0,0.8,0,1.4-0.1
		c0,0.1,0,0.2,0,0.3c0,0.1,0,0.2,0,0.3c-0.7,0-1.1,0-1.4,0h-0.2h-0.7v1c0,0.4,0,0.9,0.1,1.8H69.7L69.7,109.7z M69.7,73.6h4.7
		c-0.7,0.5-1,0.7-1,2.4v19.6c0,0.9,0.3,1.1,1,1.6h-4.7h-1.4c0.7-0.5,1-0.6,1-2v-8.9h-6.9h-4.9v8.9c0,1.3,0.3,1.5,1,2h-6.1
		c0.7-0.5,1-0.6,1-1.6V76c0-1.8-0.3-1.9-1-2.4h6.1c-0.7,0.5-1,0.7-1,2v8.1h4.9h6.9v-8.1c0-1.3-0.3-1.5-1-2H69.7L69.7,73.6z
		 M62.4,109.8c0.9-0.1,1.4-0.6,1.4-1.4c0-0.9-0.4-1.3-1.4-1.4c-0.2,0-0.4,0-0.7,0c-0.1,0-0.2,0-0.4,0v1.5c0,0.1,0,0.2,0,0.4
		c0,0.3,0,0.6,0,1c0.2,0,0.4,0,0.6,0S62.2,109.8,62.4,109.8L62.4,109.8z M62.4,106.4c0.7-0.2,1.1-0.6,1.1-1.3c0-0.6-0.4-1-1.1-1.1
		c-0.1,0-0.3,0-0.4,0c-0.1,0-0.3,0-0.6,0c0,0.3,0,0.7,0,1.2v1.4c0.1,0,0.2,0,0.3,0C61.9,106.5,62.1,106.5,62.4,106.4L62.4,106.4z
		 M62.4,103.6c0.1,0,0.2,0,0.2,0c1.2,0,1.9,0.5,1.9,1.4c0,0.9-0.5,1.4-1.7,1.6c1.3,0.1,2,0.6,2,1.7c0,1.1-0.9,1.8-2.5,1.9
		c0,0-0.1,0-0.2,0c-0.3,0-0.7,0-1.2,0c-0.2,0-0.5,0-0.8,0c0.1-1.3,0.1-2.6,0.1-4c0-1.1,0-2-0.1-2.7c0.3,0,0.5,0,0.8,0
		C61.5,103.6,61.9,103.6,62.4,103.6L62.4,103.6z M49.7,107.2L49.7,107.2c0.4,0,0.7,0,0.9,0l-0.9-2.4v0.1l-0.9,2.3
		C49.1,107.2,49.4,107.2,49.7,107.2L49.7,107.2z M49.7,103.6c0,0,0-0.1,0-0.1c0.1,0,0.2,0,0.3,0c0.1,0,0.2,0,0.2,0
		c0.8,2.2,1.7,4.5,2.7,6.8c-0.2,0-0.4,0-0.6,0c-0.2,0-0.5,0-0.7,0c-0.2-0.9-0.5-1.7-0.8-2.5c-0.4,0-0.7,0-1.1,0h0
		c-0.4,0-0.8,0-1.2,0l-0.4,1c-0.2,0.5-0.4,1-0.5,1.5c-0.2,0-0.3,0-0.4,0c-0.1,0-0.3,0-0.4,0C47.9,108,48.8,105.7,49.7,103.6
		L49.7,103.6z M49.7,67.7h1.5v4.2c-0.5-0.4-0.6-0.9-1.5-1.1c-0.4-0.1-0.8-0.2-1.5-0.2h-5h-1.9v24.3c0,1.7,0.4,1.9,1.3,2.5h-7.2
		c0.9-0.6,1.3-0.8,1.3-2.5V70.6h-6.7c-2.5,0-2.6,0.7-3.3,1.3v-4.2h16.6H49.7L49.7,67.7z"/>
</g>
</svg>
