<?xml version="1.0" encoding="utf-8"?>
<!-- Generator: Adobe Illustrator 15.0.0, SVG Export Plug-In . SVG Version: 6.00 Build 0)  -->
<!DOCTYPE svg PUBLIC "-//W3C//DTD SVG 1.1//EN" "http://www.w3.org/Graphics/SVG/1.1/DTD/svg11.dtd">
<svg version="1.1" id="Layer_1" xmlns="http://www.w3.org/2000/svg" xmlns:xlink="http://www.w3.org/1999/xlink" x="0px" y="0px"
	 width="175.9px" height="113.3px" viewBox="8.4 39.8 175.9 113.3" enable-background="new 8.4 39.8 175.9 113.3"
	 xml:space="preserve">
<path fill="#005BAA" d="M43.2,110.201c-0.6,0-1.2,0-1.8,0c0.1-1,0.1-2.101,0.1-3.301c0-1.199,0-2.3-0.1-3.3c0.2,0,0.4,0,0.6,0
	s0.4,0,0.5,0c0,0.899-0.1,1.8-0.1,2.601c0,1.699,0,2.799,0,3.5h0.7h0.2c0.6,0,1.1-0.101,1.6-0.201c0,0.101,0,0.301,0,0.4
	s0,0.2,0,0.301C44.5,110.201,43.9,110.201,43.2,110.201L43.2,110.201L43.2,110.201z M184.3,84.6c0-10.8-8.1-21.1-21.6-29.1
	c-3.301-2-6.9-3.8-10.801-5.4c-2.6-1.1-5.3-2.2-8.1-3.1c-2.301-0.7-4.6-1.4-7-2.1c-2-0.5-4-1.1-6-1.5c-2.6-0.6-5.301-1.1-8.1-1.6
	c-3-0.5-6-0.9-9.101-1.2c-3.2-0.3-6.601-0.5-10-0.7c-1.101,0-2.2,0-3.3-0.1c-0.9,0-1.801,0-2.7,0c-1.4,0-2.9,0-4.3,0.1
	c-2.7,0.1-5.5,0.2-8.1,0.4c-2.9,0.2-5.8,0.5-8.6,0.9c-2.3,0.3-4.7,0.7-7,1.1c-2.5,0.5-4.9,1-7.3,1.6c-4.4,1.1-8.7,2.3-12.7,3.7
	c-2.3,0.8-4.4,1.7-6.5,2.6c-19.4,8.3-31.8,20.8-31.8,34c0,4.6,1.4,9.1,3.9,13.2l1.4-1.1c-2-3.6-3.2-7.3-3.1-11.1
	c0.2-13.3,11.6-24.5,29.6-31.9c2.1-0.8,4.3-1.6,6.5-2.4c4-1.3,8.2-2.5,12.7-3.4c2.4-0.5,4.9-1,7.3-1.4c2.3-0.4,4.6-0.7,7-1
	c2.8-0.3,5.7-0.6,8.6-0.8c2.7-0.2,5.4-0.3,8.1-0.4c1.6,0,3.1-0.1,4.7-0.1c0.801,0,1.601,0,2.4,0c1.1,0,2.2,0,3.301,0.1
	c3.399,0.1,6.699,0.3,10,0.5c3.1,0.3,6.1,0.6,9.1,1.1c2.699,0.4,5.4,0.8,8.1,1.3c2,0.4,4,0.9,6,1.3c2.4,0.6,4.7,1.2,7,1.9
	c2.801,0.9,5.6,1.8,8.1,2.9c3.9,1.5,7.5,3.2,10.801,5.1C175,65,182.5,74.4,182.6,85.1c0.101,4.6-1.399,9-4.2,13.101
	c-0.199,0.1-0.199,0.199-0.3,0.299c-1.601,2.201-3.3,4.101-5.2,6c-2.8,2.601-6.199,5-10.1,7.201c-3.301,1.899-6.9,3.6-10.801,5.199
	c-2.6,1.1-5.299,2-8.1,2.9c-2.3,0.699-4.6,1.4-7,2c-2,0.5-4,0.9-6,1.4c-2.6,0.5-5.3,1-8.1,1.399c-2.7,0.399-5.5,0.7-8.301,1
	c-0.299,0-0.5,0-0.799,0c-3.301,0.2-6.701,0.399-10,0.399c-1.101,0-2.201,0-3.301,0c-0.199,0-0.3,0-0.5,0c-2.3,0-4.5,0-6.6-0.1
	c-2.9,0-5.6-0.1-8.1-0.199c-3-0.101-5.9-0.201-8.6-0.301c-2.3-0.1-4.7-0.1-7-0.1c-2.4,0-4.9,0.1-7.3,0.199
	c-4,0.201-8.2,0.601-12.7,1.4c-1.9,0.301-3.8,0.6-5.8,1.1c-0.3,0-0.5,0.101-0.7,0.201C20.8,133.1,8.4,146.8,8.4,146.8
	s0.3,0.4,0.4,0.3C19.2,139.5,28.8,134.701,43,133c2.1-0.199,4.3-0.399,6.5-0.5c2-0.1,4.1-0.199,6.3-0.199c2.2,0,4.3,0.1,6.4,0.199
	c2.5,0.201,4.9,0.4,7.3,0.5c2.3,0.201,4.7,0.5,7,0.701c2.9,0.299,5.7,0.699,8.6,0.899c2.7,0.2,5.4,0.399,8.1,0.5
	c2.3,0.101,4.7,0.2,7,0.101c1.1,0,2.199-0.101,3.299-0.101c3.201-0.2,6.5-0.5,10-1.101c0.4-0.1,0.701-0.1,1.101-0.199
	c2.8-0.5,5.5-1.1,8.101-1.6c2.799-0.701,5.5-1.301,8.1-2.101c2.1-0.601,4.1-1.2,6-1.8c2.4-0.801,4.699-1.6,7-2.5
	c2.9-1.1,5.6-2.301,8.1-3.6c4-1.9,7.5-4,10.801-6.101c8.399-5.601,14.1-11.5,17.399-16.899C183,94.5,184.3,91.6,184.3,84.6
	L184.3,84.6z M162.701,94.9L162.701,94.9c6,0,9.199-4.6,9.199-9.4c0-5.3-3.6-9.4-9.1-9.4c0,0,0,0-0.1,0
	c-5.801,0-9.201,4.3-9.201,9.4C153.5,90.4,156.8,94.9,162.701,94.9L162.701,94.9z M162.701,73.1h0.1c7.699,0,13.1,5.8,13.1,12.4
	c0,6.1-5.199,12.201-13.3,12.201c-4.5,0-8.399-2-10.8-5c-1.6-2-2.5-4.5-2.5-7.2s0.9-5.2,2.5-7.3C154.3,75.3,158,73.2,162.701,73.1
	L162.701,73.1z M151.9,135c3.1-1.899,6.301-4.199,9.7-6.899l0.7,0.2c0,0-3.7,4.699-10.4,9.9c-2.3,1.799-5.1,3.799-8.1,5.6
	c-2.2,1.3-4.5,2.5-7,3.6c-1.9,0.9-3.9,1.6-6,2.301c-2.5,0.899-5.2,1.6-8.1,2.1c-2.201,0.4-4.5,0.699-6.801,0.9
	c-0.8,0-1.6,0.1-2.3,0.199c-3.8,0.2-7,0.2-10,0.2c-1.101,0-2.2-0.101-3.3-0.101c-2.5-0.199-4.8-0.399-7-0.699
	c-2.8-0.4-5.4-0.9-8.1-1.4c-2.7-0.5-5.4-1-8.6-1.5c-2.2-0.3-4.5-0.5-7-0.699c-2.4-0.101-4.9-0.101-7.3,0
	c-4.6,0.1-9.1,0.6-12.7,1.399c-1.7,0.399-3.2,0.8-4.5,1.3l-0.1-0.6c1.4-0.7,2.9-1.4,4.6-2.2c3.7-1.601,8.1-3.101,12.7-4.101
	c2.4-0.5,4.9-1,7.3-1.199c0.1,0,0.2,0,0.4,0c2.1-0.2,4.3-0.2,6.6-0.1c2.7,0.1,5.6,0.399,8.6,0.699c2.6,0.301,5.3,0.6,8.1,0.9
	c2.3,0.199,4.7,0.4,7,0.6c1.1,0.1,2.199,0.1,3.3,0.2c3.2,0.2,6.601,0.2,10,0c1.2-0.101,2.5-0.2,3.7-0.3c1.9-0.2,3.699-0.4,5.4-0.6
	c2.899-0.4,5.6-0.701,8.1-1.301c2.1-0.4,4.1-0.9,6-1.5c2.4-0.699,4.699-1.5,7-2.5C146.5,138.1,149.201,136.701,151.9,135L151.9,135z
	 M151.9,109.701h0.2c0.5,0,1.101-0.101,1.601-0.201c0,0.101,0,0.301,0,0.4s0,0.2,0,0.301c-0.601,0-1.101,0-1.701,0h-0.1
	c-0.6,0-1.199,0-1.8,0c0.101-1,0.101-2.101,0.101-3.301c0-1.199,0-2.3-0.101-3.3c0.601,0,1.2,0,1.8,0l0,0c0.6,0,1.2,0,1.7,0
	c0,0.101,0,0.2,0,0.3s0,0.2,0,0.4c-0.5-0.1-1-0.2-1.601-0.2H151.8h-0.7c0,0.7,0,1.2,0,1.399v1h0.7H152c0.4,0,0.9,0,1.4-0.1
	c0,0.1,0,0.2,0,0.301c0,0.1,0,0.199,0,0.299c-0.699,0-1.1,0-1.4,0H151.8h-0.7v1c0,0.4,0,0.9,0,1.801h0.8V109.701z M143.8,106.201
	c0.699,0.799,1.5,1.6,2.199,2.399v-2.7c0-0.699,0-1.4-0.1-2.3c0.1,0,0.301,0,0.4,0s0.3,0,0.4,0c-0.101,0.7-0.201,2.399-0.201,5.3
	c0,0.301,0,0.801,0,1.5h-0.299c-0.5-0.699-1.201-1.4-1.801-2.1l-0.6-0.7l-2.2-2.399v2.699c0,0.9,0,1.6,0.101,2.301
	c-0.201,0-0.301,0-0.4,0c-0.2,0-0.301,0-0.4,0c0.1-0.9,0.2-2.701,0.2-5.301c0-0.4,0-0.9,0-1.4h0.399
	C142.201,104.4,143,105.3,143.8,106.201L143.8,106.201z M143.8,87h2.6c-0.699,0.4-0.9,0.4-0.9,1.9v6.6c-0.5,0.3-1.1,0.5-1.699,0.8
	c-2.1,0.901-4.6,1.401-7,1.401c0,0-0.1,0-0.2,0c-2.2,0-4.101-0.4-5.8-1.101c-4.4-1.8-7.2-5.8-7.2-11c0-5.2,2.899-9.3,7.2-11.3
	c1.8-0.8,3.699-1.3,5.8-1.3c0,0,0.101,0,0.2,0c4.199,0.1,5.8,1.8,6.9,1.8l0,0c0.299,0,0.5-0.2,0.799-0.4v4.5
	c-0.1-0.1-0.399-0.4-0.799-0.7c-1.101-0.9-3.4-2.4-6.601-2.4c-0.101,0-0.2,0-0.399,0c-2.301,0-4.4,0.9-6,2.2
	c-1.9,1.7-3.101,4.3-3.101,7.4s1.101,5.6,3.101,7.3c1.5,1.2,3.5,2,6,2h0.1c1.6,0,2.699-0.4,4.4-0.8v-5.2c0-1.5-0.4-1.5-0.9-1.9h3.5
	V87z M136.8,103.6L136.8,103.6c0.199,0,0.4,0,0.6,0c-0.1,1-0.1,2.101-0.1,3.3c0,1.301,0,2.301,0.1,3.301c-0.199,0-0.4,0-0.5,0l0,0
	c-0.199,0-0.4,0-0.6,0c0.1-1,0.1-2.101,0.1-3.301c0-1.199,0-2.3-0.1-3.3C136.5,103.6,136.6,103.6,136.8,103.6L136.8,103.6z
	 M130.9,106.5c0.7-0.199,1.1-0.699,1.1-1.299c0-0.601-0.399-1.101-1.1-1.301c-0.199,0-0.3,0-0.5,0c-0.199,0-0.4,0-0.6,0
	c0,0.5,0,0.9,0,1.2v1.399c0.1,0,0.199,0,0.3,0C130.3,106.6,130.6,106.6,130.9,106.5L130.9,106.5z M130.9,103.6L130.9,103.6
	c1.4,0,2.2,0.5,2.2,1.5c0,0.899-0.7,1.5-1.899,1.7c0.799,1.1,1.6,2.199,2.6,3.4c-0.2,0-0.5,0-0.7,0s-0.5,0-0.7,0
	c-0.4-0.701-0.9-1.4-1.4-2.101c-0.299-0.399-0.6-0.7-0.899-1.101h-0.2v1.101c0,0.7,0,1.399,0.1,2.2c-0.199,0-0.399,0-0.5,0
	c-0.1,0-0.399,0-0.5,0c0.101-1.301,0.101-2.6,0.101-4c0-1,0-1.9-0.101-2.7c0.201,0,0.5,0,0.701,0C130,103.6,130.4,103.6,130.9,103.6
	L130.9,103.6z M122.8,107.201L122.8,107.201c0.4,0,0.699,0,0.9,0l-0.9-2.4l-0.9,2.4C122.201,107.201,122.5,107.201,122.8,107.201
	L122.8,107.201z M122.8,103.6c0,0,0-0.101,0.1-0.2c0.1,0,0.2,0,0.2,0s0.101,0,0.2,0c0.9,2.2,1.8,4.5,2.8,6.801c-0.2,0-0.5,0-0.7,0
	c-0.199,0-0.4,0-0.6,0c-0.301-0.9-0.5-1.701-0.9-2.5c-0.4,0-0.699,0-1.1,0c0,0,0,0-0.1,0c-0.4,0-0.701,0-1.201,0l-0.399,1
	c-0.2,0.5-0.3,1-0.399,1.5c-0.101,0-0.301,0-0.4,0c-0.2,0-0.301,0-0.4,0C121,108,121.9,105.8,122.8,103.6L122.8,103.6z M122.8,94
	c0.199-0.2,0.3-0.4,0.4-0.5v3.701h-0.4h-9.1H106.1C106.701,96.7,107,96.1,107,94.8V75.6c0-1.3-0.299-1.5-1-2h6.101
	c-0.7,0.5-1,0.7-1,2v18.9h2.601h7C121.9,94.5,122.5,94.3,122.8,94L122.8,94z M113.701,108.5c0,0.101,0.1,0.101,0.1,0.201
	c0.9-1.601,1.8-3.4,2.699-5.201h0.4c0.2,2.301,0.4,4.601,0.801,6.801c-0.201,0-0.4-0.1-0.601-0.1s-0.399,0-0.5,0.1
	c-0.101-1.6-0.2-3.301-0.5-5L114.701,108c-0.4,0.801-0.701,1.5-1,2.201c0,0,0,0,0,0.1H113.6H113.5c-0.799-1.6-1.6-3.301-2.5-4.9
	l-0.299,2.7c-0.101,0.7-0.101,1.399-0.201,2.2c-0.1,0-0.299,0-0.399,0s-0.3,0-0.399,0c0.5-2.4,0.799-4.7,0.899-6.801H111
	C112,105.3,112.9,107,113.701,108.5L113.701,108.5z M103.701,97.201c0,0,0.1,0,0.1,0.1L103.701,97.201l-3.301,0.1h-3.3
	c0.3-0.301,0.601-0.4,0.8-0.9c0.2-0.4-0.1-0.9-0.199-1.3L95.3,89.7h-1.9h-8.1h-0.1L82.9,95c-0.2,0.5-0.2,0.8-0.2,1.1
	c0,1.101,0.6,0.899,0.8,1.2H78c0.4-0.301,0.9-0.4,1.6-1.9l5.6-12.9l3.1-7c0.1-0.2,0.2-0.5,0.2-0.8c0-0.4-0.3-0.7-0.5-1h4.7l0.6,1.5
	l7,16.1l1.9,4.3C102.9,96.7,103,96.8,103.701,97.201L103.701,97.201z M100.4,109.701h0.2c0.601,0,1.101-0.101,1.601-0.201
	c0,0.101,0,0.301,0,0.4s0,0.2,0,0.301c-0.5,0-1.101,0-1.701,0c0,0,0,0-0.1,0c-0.5,0-1.199,0-1.699,0c0.1-1,0.1-2.101,0.1-3.301
	c0-1.199,0-2.3-0.1-3.3c0.5,0,1.199,0,1.699,0l0,0c0.7,0,1.2,0,1.801,0c0,0.101,0,0.2,0,0.3s0,0.2,0,0.4c-0.5-0.1-1-0.2-1.601-0.2
	h-0.2h-0.699c0,0.7,0,1.2,0,1.399v1h0.699h0.301c0.399,0,0.799,0,1.299-0.1c0,0.1,0,0.2,0,0.301c0,0.1,0,0.199,0,0.299
	c-0.6,0-1.1,0-1.399,0h-0.3h-0.7v1c0,0.4,0,0.9,0,1.801h0.8V109.701z M93.4,87.1h0.8l-0.8-1.9l-3-6.9l-4,8.8H93.4L93.4,87.1z
	 M93.4,103.701c0.7,0,1.5,0,2.5-0.101c0,0.101,0,0.2,0,0.399c0,0.201,0,0.201,0,0.4c-0.7-0.1-1.2-0.199-1.4-0.199h-0.6
	c0,0.399,0,0.799,0,1.1c0,2.5,0,4.199,0.1,5c-0.2,0-0.4,0-0.5,0c-0.2,0-0.4,0-0.5,0c0.1-1,0.1-2.301,0.1-4.301
	c0-0.5,0-1.199,0-1.799h-0.5c-0.3,0-0.8,0-1.4,0.1c0-0.1,0-0.2,0-0.4c0-0.1,0-0.199,0-0.3C92,103.6,92.8,103.701,93.4,103.701
	L93.4,103.701z M85.2,109.8L85.2,109.8c0.7,0,1.3-0.2,1.6-0.6c0.5-0.5,0.5-1.101,0.5-2.101c0-0.101,0-0.2,0-0.2v-1.4
	c0-0.699,0-1.399-0.1-2c0.2,0,0.3,0,0.4,0s0.3,0,0.5,0C88,104.1,88,104.8,88,105.9v1.6c0,1.801-1,2.701-2.8,2.701h-0.1
	c-1.1,0-1.9-0.301-2.3-1c-0.3-0.5-0.4-1.101-0.4-1.9c0-0.1,0-0.2,0-0.301v-2c0-0.5,0-1.1-0.1-1.6c0.2,0,0.4,0,0.6,0
	c0.2,0,0.4,0,0.6,0c-0.1,0.7-0.1,1.301-0.1,1.6v1.801c0,0.9,0,1.5,0.2,1.8C83.8,109.5,84.3,109.8,85.2,109.8L85.2,109.8z
	 M76.6,107.201L76.6,107.201c0.4,0,0.7,0,1,0l-1-2.4l-0.9,2.4C76,107.201,76.3,107.201,76.6,107.201L76.6,107.201z M76.6,103.6
	c0,0,0-0.101,0.1-0.2c0.1,0,0.2,0,0.2,0s0.1,0,0.2,0c0.9,2.2,1.8,4.5,2.8,6.801c-0.2,0-0.5,0-0.7,0c-0.2,0-0.4,0-0.6,0
	c-0.3-0.9-0.5-1.701-0.9-2.5c-0.3,0-0.7,0-1.1,0c0,0,0,0-0.1,0c-0.4,0-0.7,0-1.1,0l-0.4,1c-0.2,0.5-0.3,1-0.4,1.5
	c-0.1,0-0.3,0-0.4,0c-0.2,0-0.3,0-0.4,0C74.8,108,75.7,105.8,76.6,103.6L76.6,103.6z M69.7,109.701h0.2c0.5,0,1.1-0.101,1.6-0.201
	c0,0.101,0,0.301,0,0.4s0,0.2,0,0.301c-0.6,0-1.2,0-1.8,0c0,0,0,0-0.1,0c-0.5,0-1.1,0-1.8,0c0.1-1,0.1-2.101,0.1-3.301
	c0-1.199,0-2.3-0.1-3.3c0.6,0,1.2,0,1.8,0c0,0,0,0,0.1,0c0.6,0,1.1,0,1.7,0c0,0.101,0,0.2,0,0.3s0,0.2,0,0.4
	c-0.5-0.1-1.1-0.2-1.6-0.2h-0.2h-0.7c0,0.7,0,1.2,0,1.399v1h0.7H70c0.4,0,0.8,0,1.4-0.1c0,0.1,0,0.2,0,0.301c0,0.1,0,0.199,0,0.299
	c-0.7,0-1.1,0-1.4,0h-0.2h-0.7v1c0,0.4,0,0.9,0.1,1.801h0.5V109.701z M69.7,73.6h4.7c-0.7,0.5-1,0.7-1,2.4v19.6
	c0,0.9,0.3,1.1,1,1.601h-4.7h-1.4c0.7-0.5,1-0.601,1-2v-8.9h-6.9h-4.9v8.9c0,1.3,0.3,1.5,1,2h-6.1c0.7-0.5,1-0.601,1-1.601V76
	c0-1.8-0.3-1.9-1-2.4h6.1c-0.7,0.5-1,0.7-1,2v8.1h4.9h6.9v-8.1c0-1.3-0.3-1.5-1-2H69.7L69.7,73.6z M62.4,109.8
	c0.9-0.1,1.4-0.6,1.4-1.4c0-0.9-0.4-1.3-1.4-1.4c-0.2,0-0.4,0-0.7,0c-0.1,0-0.2,0-0.4,0v1.5c0,0.101,0,0.201,0,0.4
	c0,0.301,0,0.6,0,1c0.2,0,0.4,0,0.6,0C62.1,109.9,62.2,109.8,62.4,109.8L62.4,109.8z M62.4,106.4c0.7-0.199,1.1-0.6,1.1-1.3
	c0-0.601-0.4-1-1.1-1.101c-0.1,0-0.3,0-0.4,0s-0.3,0-0.6,0c0,0.301,0,0.701,0,1.201v1.399c0.1,0,0.2,0,0.3,0
	C61.9,106.5,62.1,106.5,62.4,106.4L62.4,106.4z M62.4,103.6c0.1,0,0.2,0,0.2,0c1.2,0,1.9,0.5,1.9,1.399c0,0.9-0.5,1.4-1.7,1.601
	c1.3,0.101,2,0.601,2,1.7s-0.9,1.8-2.5,1.9c0,0-0.1,0-0.2,0c-0.3,0-0.7,0-1.2,0c-0.2,0-0.5,0-0.8,0c0.1-1.301,0.1-2.601,0.1-4
	c0-1.101,0-2-0.1-2.701c0.3,0,0.5,0,0.8,0C61.5,103.6,61.9,103.6,62.4,103.6L62.4,103.6z M49.7,107.201L49.7,107.201
	c0.4,0,0.7,0,0.9,0l-0.9-2.4v0.1l-0.9,2.301C49.1,107.201,49.4,107.201,49.7,107.201L49.7,107.201z M49.7,103.6V103.5
	c0.1,0,0.2,0,0.3,0s0.2,0,0.2,0c0.8,2.201,1.7,4.5,2.7,6.801c-0.2,0-0.4,0-0.6,0c-0.2,0-0.5,0-0.7,0c-0.2-0.9-0.5-1.7-0.8-2.5
	c-0.4,0-0.7,0-1.1,0l0,0c-0.4,0-0.8,0-1.2,0l-0.4,1c-0.2,0.5-0.4,1-0.5,1.5c-0.2,0-0.3,0-0.4,0c-0.1,0-0.3,0-0.4,0
	C47.9,108,48.8,105.701,49.7,103.6L49.7,103.6z M49.7,67.7h1.5v4.2c-0.5-0.4-0.6-0.9-1.5-1.1c-0.4-0.1-0.8-0.2-1.5-0.2h-5h-1.9v24.3
	c0,1.7,0.4,1.9,1.3,2.5h-7.2c0.9-0.6,1.3-0.8,1.3-2.5V70.6H30c-2.5,0-2.6,0.7-3.3,1.3v-4.2h16.6H49.7L49.7,67.7z"/>
</svg>
